<?xml version="1.0" encoding="us-ascii" standalone="no"?><svg xmlns="http://www.w3.org/2000/svg" xmlns:xlink="http://www.w3.org/1999/xlink" contentStyleType="text/css" height="871px" preserveAspectRatio="none" style="width:712px;height:871px;background:#FFFFFF;" version="1.1" viewBox="0 0 712 871" width="712px" zoomAndPan="magnify"><defs/><g><rect fill="none" height="22.6406" style="stroke:none;stroke-width:1.0;" width="679.5" x="15" y="12.4551"/><ellipse cx="121" cy="50.0957" fill="#222222" rx="10" ry="10" style="stroke:#222222;stroke-width:1.0;"/><rect fill="#F1F1F1" height="35.0938" rx="12.5" ry="12.5" style="stroke:#181818;stroke-width:0.5;" width="200" x="21" y="80.0957"/><text fill="#000000" font-family="sans-serif" font-size="12" lengthAdjust="spacing" textLength="180" x="31" y="102.5527">Anfrageeinreichung durch Kunde</text><rect fill="#F1F1F1" height="35.0938" rx="12.5" ry="12.5" style="stroke:#181818;stroke-width:0.5;" width="159" x="41.5" y="626.4941"/><text fill="#000000" font-family="sans-serif" font-size="12" lengthAdjust="spacing" textLength="139" x="51.5" y="648.9512">Kunde gibt R&#252;ckmeldung</text><line style="stroke:#000000;stroke-width:1.5;" x1="15" x2="15" y1="12.4551" y2="859.6006"/><rect fill="#F1F1F1" height="35.0938" rx="12.5" ry="12.5" style="stroke:#181818;stroke-width:0.5;" width="179" x="288" y="135.1895"/><text fill="#000000" font-family="sans-serif" font-size="12" lengthAdjust="spacing" textLength="159" x="298" y="157.6465">Erfassung &amp; Kategorisierung</text><rect fill="#F1F1F1" height="35.0938" rx="12.5" ry="12.5" style="stroke:#181818;stroke-width:0.5;" width="150" x="302.5" y="239.2012"/><text fill="#000000" font-family="sans-serif" font-size="12" lengthAdjust="spacing" textLength="130" x="312.5" y="261.6582">Genehmigung einholen</text><polygon fill="#F1F1F1" points="312,190.2832,443,190.2832,455,202.2832,443,214.2832,312,214.2832,300,202.2832,312,190.2832" style="stroke:#181818;stroke-width:0.5;"/><text fill="#000000" font-family="sans-serif" font-size="11" lengthAdjust="spacing" textLength="11" x="381.5" y="225.7021">Ja</text><text fill="#000000" font-family="sans-serif" font-size="11" lengthAdjust="spacing" textLength="131" x="312" y="206.7842">Genehmigung erforderlich?</text><text fill="#000000" font-family="sans-serif" font-size="11" lengthAdjust="spacing" textLength="21" x="279" y="199.8662">Nein</text><polygon fill="#F1F1F1" points="377.5,364.3887,389.5,376.3887,377.5,388.3887,365.5,376.3887,377.5,364.3887" style="stroke:#181818;stroke-width:0.5;"/><rect fill="#F1F1F1" height="35.0938" rx="12.5" ry="12.5" style="stroke:#181818;stroke-width:0.5;" width="167" x="294" y="408.3887"/><text fill="#000000" font-family="sans-serif" font-size="12" lengthAdjust="spacing" textLength="147" x="304" y="430.8457">Bearbeitung durch Support</text><rect fill="#F1F1F1" height="35.0938" rx="12.5" ry="12.5" style="stroke:#181818;stroke-width:0.5;" width="125" x="315" y="556.4004"/><text fill="#000000" font-family="sans-serif" font-size="12" lengthAdjust="spacing" textLength="105" x="325" y="578.8574">Feedback einholen</text><polygon fill="#F1F1F1" points="332,507.4824,423,507.4824,435,519.4824,423,531.4824,332,531.4824,320,519.4824,332,507.4824" style="stroke:#181818;stroke-width:0.5;"/><text fill="#000000" font-family="sans-serif" font-size="11" lengthAdjust="spacing" textLength="11" x="381.5" y="542.9014">Ja</text><text fill="#000000" font-family="sans-serif" font-size="11" lengthAdjust="spacing" textLength="91" x="332" y="523.9834">L&#246;sung gefunden?</text><text fill="#000000" font-family="sans-serif" font-size="11" lengthAdjust="spacing" textLength="21" x="435" y="517.0654">Nein</text><polygon fill="#F1F1F1" points="377.5,681.5879,389.5,693.5879,377.5,705.5879,365.5,693.5879,377.5,681.5879" style="stroke:#181818;stroke-width:0.5;"/><polygon fill="#F1F1F1" points="377.5,463.4824,389.5,475.4824,377.5,487.4824,365.5,475.4824,377.5,463.4824" style="stroke:#181818;stroke-width:0.5;"/><polygon fill="#F1F1F1" points="252,725.5879,503,725.5879,515,737.5879,503,749.5879,252,749.5879,240,737.5879,252,725.5879" style="stroke:#181818;stroke-width:0.5;"/><text fill="#000000" font-family="sans-serif" font-size="11" lengthAdjust="spacing" textLength="11" x="381.5" y="761.0068">Ja</text><text fill="#000000" font-family="sans-serif" font-size="11" lengthAdjust="spacing" textLength="251" x="252" y="742.0889">Problem gel&#246;st oder R&#252;ckmeldungsfrist verstrichen?</text><text fill="#000000" font-family="sans-serif" font-size="11" lengthAdjust="spacing" textLength="21" x="515" y="735.1709">Nein</text><rect fill="#F1F1F1" height="35.0938" rx="12.5" ry="12.5" style="stroke:#181818;stroke-width:0.5;" width="229" x="263" y="782.5068"/><text fill="#000000" font-family="sans-serif" font-size="12" lengthAdjust="spacing" textLength="209" x="273" y="804.9639">Dokumentation &amp; Prozessoptimierung</text><ellipse cx="377.5" cy="848.6006" fill="none" rx="11" ry="11" style="stroke:#222222;stroke-width:1.0;"/><ellipse cx="377.5" cy="848.6006" fill="#222222" rx="6" ry="6" style="stroke:#222222;stroke-width:1.0;"/><line style="stroke:#000000;stroke-width:1.5;" x1="225" x2="225" y1="12.4551" y2="859.6006"/><rect fill="#F1F1F1" height="35.0938" rx="12.5" ry="12.5" style="stroke:#181818;stroke-width:0.5;" width="137" x="552" y="309.2949"/><text fill="#000000" font-family="sans-serif" font-size="12" lengthAdjust="spacing" textLength="117" x="562" y="331.752">Genehmigung geben</text><line style="stroke:#000000;stroke-width:1.5;" x1="546" x2="546" y1="12.4551" y2="859.6006"/><line style="stroke:#000000;stroke-width:1.5;" x1="693" x2="693" y1="12.4551" y2="859.6006"/><line style="stroke:#181818;stroke-width:1.0;" x1="121" x2="121" y1="60.0957" y2="80.0957"/><polygon fill="#181818" points="117,70.0957,121,80.0957,125,70.0957,121,74.0957" style="stroke:#181818;stroke-width:1.0;"/><line style="stroke:#181818;stroke-width:1.0;" x1="377.5" x2="377.5" y1="214.2832" y2="239.2012"/><polygon fill="#181818" points="373.5,229.2012,377.5,239.2012,381.5,229.2012,377.5,233.2012" style="stroke:#181818;stroke-width:1.0;"/><line style="stroke:#181818;stroke-width:1.0;" x1="300" x2="288" y1="202.2832" y2="202.2832"/><polygon fill="#181818" points="284,281.7949,288,291.7949,292,281.7949,288,285.7949" style="stroke:#181818;stroke-width:1.0;"/><line style="stroke:#181818;stroke-width:1.0;" x1="288" x2="288" y1="202.2832" y2="376.3887"/><line style="stroke:#181818;stroke-width:1.0;" x1="288" x2="365.5" y1="376.3887" y2="376.3887"/><polygon fill="#181818" points="355.5,372.3887,365.5,376.3887,355.5,380.3887,359.5,376.3887" style="stroke:#181818;stroke-width:1.0;"/><line style="stroke:#181818;stroke-width:1.0;" x1="377.5" x2="377.5" y1="170.2832" y2="190.2832"/><polygon fill="#181818" points="373.5,180.2832,377.5,190.2832,381.5,180.2832,377.5,184.2832" style="stroke:#181818;stroke-width:1.0;"/><line style="stroke:#181818;stroke-width:1.0;" x1="377.5" x2="377.5" y1="388.3887" y2="408.3887"/><polygon fill="#181818" points="373.5,398.3887,377.5,408.3887,381.5,398.3887,377.5,402.3887" style="stroke:#181818;stroke-width:1.0;"/><line style="stroke:#181818;stroke-width:1.0;" x1="377.5" x2="377.5" y1="531.4824" y2="556.4004"/><polygon fill="#181818" points="373.5,546.4004,377.5,556.4004,381.5,546.4004,377.5,550.4004" style="stroke:#181818;stroke-width:1.0;"/><line style="stroke:#181818;stroke-width:1.0;" x1="435" x2="467" y1="519.4824" y2="519.4824"/><polygon fill="#181818" points="463,598.9941,467,608.9941,471,598.9941,467,602.9941" style="stroke:#181818;stroke-width:1.0;"/><line style="stroke:#181818;stroke-width:1.0;" x1="467" x2="467" y1="519.4824" y2="693.5879"/><line style="stroke:#181818;stroke-width:1.0;" x1="467" x2="389.5" y1="693.5879" y2="693.5879"/><polygon fill="#181818" points="399.5,689.5879,389.5,693.5879,399.5,697.5879,395.5,693.5879" style="stroke:#181818;stroke-width:1.0;"/><line style="stroke:#181818;stroke-width:1.0;" x1="377.5" x2="377.5" y1="487.4824" y2="507.4824"/><polygon fill="#181818" points="373.5,497.4824,377.5,507.4824,381.5,497.4824,377.5,501.4824" style="stroke:#181818;stroke-width:1.0;"/><line style="stroke:#181818;stroke-width:1.0;" x1="515" x2="527" y1="737.5879" y2="737.5879"/><polygon fill="#181818" points="523,618.9941,527,608.9941,531,618.9941,527,614.9941" style="stroke:#181818;stroke-width:1.0;"/><line style="stroke:#181818;stroke-width:1.0;" x1="527" x2="527" y1="475.4824" y2="737.5879"/><line style="stroke:#181818;stroke-width:1.0;" x1="527" x2="389.5" y1="475.4824" y2="475.4824"/><polygon fill="#181818" points="399.5,471.4824,389.5,475.4824,399.5,479.4824,395.5,475.4824" style="stroke:#181818;stroke-width:1.0;"/><line style="stroke:#181818;stroke-width:1.0;" x1="377.5" x2="377.5" y1="705.5879" y2="725.5879"/><polygon fill="#181818" points="373.5,715.5879,377.5,725.5879,381.5,715.5879,377.5,719.5879" style="stroke:#181818;stroke-width:1.0;"/><line style="stroke:#181818;stroke-width:1.0;" x1="377.5" x2="377.5" y1="443.4824" y2="463.4824"/><polygon fill="#181818" points="373.5,453.4824,377.5,463.4824,381.5,453.4824,377.5,457.4824" style="stroke:#181818;stroke-width:1.0;"/><line style="stroke:#181818;stroke-width:1.0;" x1="377.5" x2="377.5" y1="749.5879" y2="782.5068"/><polygon fill="#181818" points="373.5,772.5068,377.5,782.5068,381.5,772.5068,377.5,776.5068" style="stroke:#181818;stroke-width:1.0;"/><line style="stroke:#181818;stroke-width:1.0;" x1="377.5" x2="377.5" y1="817.6006" y2="837.6006"/><polygon fill="#181818" points="373.5,827.6006,377.5,837.6006,381.5,827.6006,377.5,831.6006" style="stroke:#181818;stroke-width:1.0;"/><line style="stroke:#181818;stroke-width:1.0;" x1="121" x2="121" y1="115.1895" y2="120.1895"/><line style="stroke:#181818;stroke-width:1.0;" x1="121" x2="377.5" y1="120.1895" y2="120.1895"/><line style="stroke:#181818;stroke-width:1.0;" x1="377.5" x2="377.5" y1="120.1895" y2="135.1895"/><polygon fill="#181818" points="373.5,125.1895,377.5,135.1895,381.5,125.1895,377.5,129.1895" style="stroke:#181818;stroke-width:1.0;"/><line style="stroke:#181818;stroke-width:1.0;" x1="377.5" x2="377.5" y1="274.2949" y2="291.7949"/><line style="stroke:#181818;stroke-width:1.0;" x1="377.5" x2="620.5" y1="291.7949" y2="291.7949"/><line style="stroke:#181818;stroke-width:1.0;" x1="620.5" x2="620.5" y1="291.7949" y2="309.2949"/><polygon fill="#181818" points="616.5,299.2949,620.5,309.2949,624.5,299.2949,620.5,303.2949" style="stroke:#181818;stroke-width:1.0;"/><line style="stroke:#181818;stroke-width:1.0;" x1="620.5" x2="620.5" y1="344.3887" y2="351.9297"/><line style="stroke:#181818;stroke-width:1.0;" x1="620.5" x2="377.5" y1="351.9297" y2="351.9297"/><line style="stroke:#181818;stroke-width:1.0;" x1="377.5" x2="377.5" y1="351.9297" y2="364.3887"/><polygon fill="#181818" points="373.5,354.3887,377.5,364.3887,381.5,354.3887,377.5,358.3887" style="stroke:#181818;stroke-width:1.0;"/><line style="stroke:#181818;stroke-width:1.0;" x1="377.5" x2="377.5" y1="591.4941" y2="608.9941"/><line style="stroke:#181818;stroke-width:1.0;" x1="377.5" x2="121" y1="608.9941" y2="608.9941"/><line style="stroke:#181818;stroke-width:1.0;" x1="121" x2="121" y1="608.9941" y2="626.4941"/><polygon fill="#181818" points="117,616.4941,121,626.4941,125,616.4941,121,620.4941" style="stroke:#181818;stroke-width:1.0;"/><line style="stroke:#181818;stroke-width:1.0;" x1="121" x2="121" y1="661.5879" y2="669.1289"/><line style="stroke:#181818;stroke-width:1.0;" x1="121" x2="377.5" y1="669.1289" y2="669.1289"/><line style="stroke:#181818;stroke-width:1.0;" x1="377.5" x2="377.5" y1="669.1289" y2="681.5879"/><polygon fill="#181818" points="373.5,671.5879,377.5,681.5879,381.5,671.5879,377.5,675.5879" style="stroke:#181818;stroke-width:1.0;"/><text fill="#000000" font-family="sans-serif" font-size="18" lengthAdjust="spacing" textLength="52" x="94" y="31.1406">Kunde</text><text fill="#000000" font-family="sans-serif" font-size="18" lengthAdjust="spacing" textLength="115" x="328" y="31.1406">Support-Team</text><text fill="#000000" font-family="sans-serif" font-size="18" lengthAdjust="spacing" textLength="98" x="570.5" y="31.1406">Genehmiger</text><!--SRC=[XPBFJkCm4CRlVeevGNle2oJIefR-OM65qC8jwi599ebLnux63aXBUAqzxOqNO-Acq6mNDXThx2_ZttoVpw7GzYch97buM8fpwBzvCZS5oH9H6KALLQqf8Myfg-2cDJbkOJRx1ejaHOLqhZyyWnlfiRIad4BYdUtGQX6abyyRD5ZLgkp5I8Mb74bpvukNGNZ9GhYMGRvCHd9bAglHR8-LjxmRjAjaWP9ILFu3yhvj6al-yCDoBnogLQZMppzUVmVq4ej-9lDEiZuYsIJpr6MLRftZ6TU8UIgptGdIUeHqbQpSJchfbNrNN8qODg7wdYpjhgtH-23b2-x8_aBdREDLVV1HTC7pJZZF8OdewsXYrW_ZpnvGrfs8laWf5gg0oQVPJC5NQ61oBQS28FfNA7nVFr1tE4FgmiP8N6BQAr4xX4blqrIWoLLnolffbh4WR51wRjuZduGtHkNxJxAAFvoCmWgbIZtyVFsJxMhKUR3ZRo20OsYk0lOU1PugfVcCGqirrioYcSg3PVj6RLt1XdjuH7AUsDU0gzpG5OprUsuH_VyznFmCR2FU0000]--></g></svg>