<?xml version="1.0" encoding="us-ascii" standalone="no"?><svg xmlns="http://www.w3.org/2000/svg" xmlns:xlink="http://www.w3.org/1999/xlink" contentStyleType="text/css" height="493px" preserveAspectRatio="none" style="width:1083px;height:493px;background:#FFFFFF;" version="1.1" viewBox="0 0 1083 493" width="1083px" zoomAndPan="magnify"><defs/><g><!--entity c--><g id="elem_c"><ellipse cx="281" cy="289" fill="#F1F1F1" rx="8" ry="8" style="stroke:#181818;stroke-width:0.5;"/><path d="M281,297 L281,324 M268,305 L294,305 M281,324 L268,339 M281,324 L294,339 " fill="none" style="stroke:#181818;stroke-width:0.5;"/><text fill="#000000" font-family="sans-serif" font-size="14" lengthAdjust="spacing" textLength="41" x="260.5" y="355.0332">Kunde</text></g><!--entity bc--><g id="elem_bc"><ellipse cx="59" cy="289" fill="#F1F1F1" rx="8" ry="8" style="stroke:#181818;stroke-width:0.5;"/><path d="M59,297 L59,324 M46,305 L72,305 M59,324 L46,339 M59,324 L72,339 " fill="none" style="stroke:#181818;stroke-width:0.5;"/><text fill="#000000" font-family="sans-serif" font-size="14" lengthAdjust="spacing" textLength="106" x="6" y="355.0332">Business_Kunde</text></g><!--entity s--><g id="elem_s"><ellipse cx="59" cy="18" fill="#F1F1F1" rx="8" ry="8" style="stroke:#181818;stroke-width:0.5;"/><path d="M59,26 L59,53 M46,34 L72,34 M59,53 L46,68 M59,53 L72,68 " fill="none" style="stroke:#181818;stroke-width:0.5;"/><text fill="#000000" font-family="sans-serif" font-size="14" lengthAdjust="spacing" textLength="50" x="34" y="84.0332">Support</text></g><!--entity qa--><g id="elem_qa"><ellipse cx="59" cy="136" fill="#F1F1F1" rx="8" ry="8" style="stroke:#181818;stroke-width:0.5;"/><path d="M59,144 L59,171 M46,152 L72,152 M59,171 L46,186 M59,171 L72,186 " fill="none" style="stroke:#181818;stroke-width:0.5;"/><text fill="#000000" font-family="sans-serif" font-size="14" lengthAdjust="spacing" textLength="20" x="49" y="202.0332">QA</text></g><g id="elem_pb"><ellipse cx="583.2877" cy="168.5575" fill="#F1F1F1" rx="78.2877" ry="18.0575" style="stroke:#181818;stroke-width:0.5;"/><text fill="#000000" font-family="sans-serif" font-size="14" lengthAdjust="spacing" textLength="110" x="526.5149" y="172.7774">Produkt bestellen</text></g><g id="elem_ticket"><ellipse cx="583.63" cy="243.526" fill="#F1F1F1" rx="95.63" ry="21.526" style="stroke:#181818;stroke-width:0.5;"/><text fill="#000000" font-family="sans-serif" font-size="14" lengthAdjust="spacing" textLength="151" x="508.13" y="247.2545">Support-Ticket erstellen</text></g><g id="elem_info"><ellipse cx="583.6163" cy="319.6233" fill="#F1F1F1" rx="86.1163" ry="19.6233" style="stroke:#181818;stroke-width:0.5;"/><text fill="#000000" font-family="sans-serif" font-size="14" lengthAdjust="spacing" textLength="129" x="519.1163" y="323.3518">Informationen finden</text></g><g id="elem_pm"><ellipse cx="1002.2256" cy="363.4451" fill="#F1F1F1" rx="75.2256" ry="17.4451" style="stroke:#181818;stroke-width:0.5;"/><text fill="#000000" font-family="sans-serif" font-size="14" lengthAdjust="spacing" textLength="102" x="948.2256" y="367.9617">Problem melden</text></g><g id="elem_logs"><ellipse cx="280.813" cy="102.2626" fill="#F1F1F1" rx="94.313" ry="21.2626" style="stroke:#181818;stroke-width:0.5;"/><text fill="#000000" font-family="sans-serif" font-size="14" lengthAdjust="spacing" textLength="148" x="206.813" y="105.9911">Chatbot-Logs einsehen</text></g><g id="elem_readticket"><ellipse cx="281.1203" cy="27.3241" fill="#F1F1F1" rx="77.1203" ry="17.8241" style="stroke:#181818;stroke-width:0.5;"/><text fill="#000000" font-family="sans-serif" font-size="14" lengthAdjust="spacing" textLength="107" x="225.2783" y="31.6856">Tickets einsehen</text></g><g id="elem_cga"><ellipse cx="281.1585" cy="183.5317" fill="#F1F1F1" rx="108.1585" ry="24.0317" style="stroke:#181818;stroke-width:0.5;"/><text fill="#000000" font-family="sans-serif" font-size="14" lengthAdjust="spacing" textLength="179" x="191.6585" y="187.2602">Chatbot-Graph aktualisieren</text></g><g id="elem_cfg"><ellipse cx="583.6965" cy="466.7393" fill="#F1F1F1" rx="91.6965" ry="20.7393" style="stroke:#181818;stroke-width:0.5;"/><text fill="#000000" font-family="sans-serif" font-size="14" lengthAdjust="spacing" textLength="142" x="512.6965" y="470.4678">Chat-Feedback geben</text></g><g id="elem_GMN16"><path d="M509.5,89.5 L509.5,98.5 L375.84,102.5 L509.5,106.5 L509.5,115.8516 A0,0 0 0 0 509.5,115.8516 L657.5,115.8516 A0,0 0 0 0 657.5,115.8516 L657.5,99.5 L647.5,89.5 L509.5,89.5 A0,0 0 0 0 509.5,89.5 " fill="#FEFFDD" style="stroke:#181818;stroke-width:0.5;"/><path d="M647.5,89.5 L647.5,99.5 L657.5,99.5 L647.5,89.5 " fill="#FEFFDD" style="stroke:#181818;stroke-width:0.5;"/><text fill="#000000" font-family="sans-serif" font-size="13" lengthAdjust="spacing" textLength="127" x="515.5" y="107.9951">Beinhalten Statistiken</text></g><g id="elem_GMN19"><path d="M450,6 L450,23.5 L358.22,27.5 L450,31.5 L450,48.7031 A0,0 0 0 0 450,48.7031 L717,48.7031 A0,0 0 0 0 717,48.7031 L717,16 L707,6 L450,6 A0,0 0 0 0 450,6 " fill="#FEFFDD" style="stroke:#181818;stroke-width:0.5;"/><path d="M707,6 L707,16 L717,16 L707,6 " fill="#FEFFDD" style="stroke:#181818;stroke-width:0.5;"/><text fill="#000000" font-family="sans-serif" font-size="13" lengthAdjust="spacing" textLength="246" x="456" y="24.4951">Tickets: Beinhalten Informationen aus dem</text><text fill="#000000" font-family="sans-serif" font-size="13" lengthAdjust="spacing" textLength="202" x="456" y="40.8467">Chat inkl. Input Daten (z.B. E-Mail)</text></g><!--link bc to c--><g id="link_bc_c"><path d="M112.14,319.5 C159.66,319.5 209.32,319.5 242.35,319.5 " fill="none" id="bc-to-c" style="stroke:#181818;stroke-width:1.0;"/><polygon fill="none" points="260.35,319.5,242.35,313.5,242.35,325.5,260.35,319.5" style="stroke:#181818;stroke-width:1.0;"/></g><!--link ticket to pm--><g id="link_ticket_pm"><path d="M643.29,260.44 C726.71,284.47 871.9745,326.3289 948.3345,348.3289 " fill="none" id="ticket-to-pm" style="stroke:#181818;stroke-width:1.0;stroke-dasharray:7.0,7.0;"/><polygon fill="#181818" points="954.1,349.99,946.5592,343.6547,949.2954,348.6058,944.3444,351.342,954.1,349.99" style="stroke:#181818;stroke-width:1.0;"/><text fill="#000000" font-family="sans-serif" font-size="13" lengthAdjust="spacing" textLength="53" x="795.5" y="235.9951">&#171;extend&#187;</text><path d="M752,244.8516 L752,286.8516 L892,286.8516 L892,254.8516 L882,244.8516 L752,244.8516 " fill="#FEFFDD" style="stroke:#181818;stroke-width:0.5;"/><path d="M882,244.8516 L882,254.8516 L892,254.8516 L882,244.8516 " fill="#FEFFDD" style="stroke:#181818;stroke-width:0.5;"/><text fill="#000000" font-family="sans-serif" font-size="13" lengthAdjust="spacing" textLength="93" x="758" y="263.3467">&#171;Vorbedingung&#187;</text><text fill="#000000" font-family="sans-serif" font-size="13" lengthAdjust="spacing" textLength="119" x="758" y="279.6982">Problem nicht gel&#246;st</text></g><!--link c to pb--><g id="link_c_pb"><path d="M301.86,302.58 C331.99,277.71 391.92,231.33 450,204.5 C473.05,193.85 494.0216,187.2548 517.4616,181.5248 " fill="none" id="c-to-pb" style="stroke:#181818;stroke-width:1.0;"/><polygon fill="#181818" points="523.29,180.1,513.5976,178.3516,518.433,181.2873,515.4973,186.1227,523.29,180.1" style="stroke:#181818;stroke-width:1.0;"/></g><!--link c to pm--><g id="link_c_pm"><path d="M301.69,325.21 C332.85,333.94 395.56,350.23 450,356.5 C620.59,376.16 816.8552,371.9408 922.5052,367.5208 " fill="none" id="c-to-pm" style="stroke:#181818;stroke-width:1.0;"/><polygon fill="#181818" points="928.5,367.27,919.3407,363.6497,923.5044,367.479,919.6751,371.6427,928.5,367.27" style="stroke:#181818;stroke-width:1.0;"/></g><!--link c to ticket--><g id="link_c_ticket"><path d="M301.72,314.51 C345.13,303.53 444.7632,278.3414 513.3532,260.9914 " fill="none" id="c-to-ticket" style="stroke:#181818;stroke-width:1.0;"/><polygon fill="#181818" points="519.17,259.52,509.4639,257.8492,514.3227,260.7461,511.4257,265.6049,519.17,259.52" style="stroke:#181818;stroke-width:1.0;"/></g><!--link c to cfg--><g id="link_c_cfg"><path d="M301.93,337.31 C327.41,359.23 373.68,396.29 419,418.5 C449.55,433.47 479.8372,443.193 510.3272,450.993 " fill="none" id="c-to-cfg" style="stroke:#181818;stroke-width:1.0;"/><polygon fill="#181818" points="516.14,452.48,508.4122,446.3742,511.296,451.2408,506.4294,454.1246,516.14,452.48" style="stroke:#181818;stroke-width:1.0;"/></g><!--link c to info--><g id="link_c_info"><path d="M301.72,319.5 C340.76,319.5 423.96,319.5 491.42,319.5 " fill="none" id="c-to-info" style="stroke:#181818;stroke-width:1.0;"/><polygon fill="#181818" points="497.42,319.5,488.42,315.5,492.42,319.5,488.42,323.5,497.42,319.5" style="stroke:#181818;stroke-width:1.0;"/></g><!--link s to logs--><g id="link_s_logs"><path d="M84.38,54.49 C115.93,62.23 166.2431,74.5794 210.3131,85.3994 " fill="none" id="s-to-logs" style="stroke:#181818;stroke-width:1.0;"/><polygon fill="#181818" points="216.14,86.83,208.3533,80.7994,211.2842,85.6378,206.4458,88.5687,216.14,86.83" style="stroke:#181818;stroke-width:1.0;"/></g><!--link s to readticket--><g id="link_s_readticket"><path d="M84.38,46.17 C114.37,43.31 160.5872,38.9004 203.5172,34.8004 " fill="none" id="s-to-readticket" style="stroke:#181818;stroke-width:1.0;"/><polygon fill="#181818" points="209.49,34.23,200.1505,31.1038,204.5126,34.7054,200.9111,39.0675,209.49,34.23" style="stroke:#181818;stroke-width:1.0;"/></g><!--link qa to logs--><g id="link_qa_logs"><path d="M72.78,162.78 C101.21,154.51 165.4191,135.8368 216.1991,121.0568 " fill="none" id="qa-to-logs" style="stroke:#181818;stroke-width:1.0;"/><polygon fill="#181818" points="221.96,119.38,212.2007,118.0545,217.1592,120.7773,214.4364,125.7358,221.96,119.38" style="stroke:#181818;stroke-width:1.0;"/></g><!--link qa to cga--><g id="link_qa_cga"><path d="M72.78,167.49 C93.69,169.1 131.0878,171.998 172.7778,175.218 " fill="none" id="qa-to-cga" style="stroke:#181818;stroke-width:1.0;"/><polygon fill="#181818" points="178.76,175.68,170.0948,170.9988,173.7748,175.295,169.4787,178.9751,178.76,175.68" style="stroke:#181818;stroke-width:1.0;"/></g><!--SRC=[PP9DRjmm38NtEWMHJTg5VO11O22JfaNG7pIODjk2icbRi2mv4essGS_L2_HYfMnDF9DuHOlV8wadMcePs4CmNS_Gc40r6-zK78oRCE084zO3TdJWtvOWfT5rbfJ2cds0ZxDh2312dG_sSpIEOlpndD6rqZKKnPzAe4mTvcdoWLCwvgFxw_JtY4hDaMgC11TVWs_cWK5JPBAMt4L29hqHkKxnpTG3CL0u1NavtE0xr_emOheVEMYDpBU2HX9dNRMb4KQoHs0Qj_HDZwmz5vzy5u6CYzHdoih9ngqZlK02OVDoh6F13m6d7d3W6Qs9XaBMr1sUmyLxeaRBiq17-WYrdLANy5sOcmJUXfzacCBiEd9gRGbbMSbLO0TNL_IBoJLLfPnd0k_06ZSeaCo33veQupgHIXxWw8SpjQn8H_RVtyXAr92qgUiNp-P9sYorratoxMe7oBSN2tgqqX0EBFP7DeFGKc4fSAuwSIXfiukxqoBdxuXpX8R6XKxko6iEjXHecXdUOHAyUIht9TmMdz7OjyzzPV072bhMO35fj-woIgjQfINBmPY3FDJwa-nUesLtNfNAUwdYmYnEhE79zLw9xg_L8sw27Clp_mS0]--></g></svg>