<?xml version="1.0" encoding="us-ascii" standalone="no"?><svg xmlns="http://www.w3.org/2000/svg" xmlns:xlink="http://www.w3.org/1999/xlink" contentStyleType="text/css" height="546px" preserveAspectRatio="none" style="width:831px;height:546px;background:#FFFFFF;" version="1.1" viewBox="0 0 831 546" width="831px" zoomAndPan="magnify"><defs/><g><!--entity c--><g id="elem_c"><ellipse cx="292.5" cy="365.5" fill="#F1F1F1" rx="8" ry="8" style="stroke:#181818;stroke-width:0.5;"/><path d="M292.5,373.5 L292.5,400.5 M279.5,381.5 L305.5,381.5 M292.5,400.5 L279.5,415.5 M292.5,400.5 L305.5,415.5 " fill="none" style="stroke:#181818;stroke-width:0.5;"/><text fill="#000000" font-family="sans-serif" font-size="14" lengthAdjust="spacing" textLength="44" x="270.5" y="431.9659">Kunde</text></g><!--entity bc--><g id="elem_bc"><ellipse cx="61" cy="365.5" fill="#F1F1F1" rx="8" ry="8" style="stroke:#181818;stroke-width:0.5;"/><path d="M61,373.5 L61,400.5 M48,381.5 L74,381.5 M61,400.5 L48,415.5 M61,400.5 L74,415.5 " fill="none" style="stroke:#181818;stroke-width:0.5;"/><text fill="#000000" font-family="sans-serif" font-size="14" lengthAdjust="spacing" textLength="110" x="6" y="431.9659">Business_Kunde</text></g><!--entity s--><g id="elem_s"><ellipse cx="61" cy="17.5" fill="#F1F1F1" rx="8" ry="8" style="stroke:#181818;stroke-width:0.5;"/><path d="M61,25.5 L61,52.5 M48,33.5 L74,33.5 M61,52.5 L48,67.5 M61,52.5 L74,67.5 " fill="none" style="stroke:#181818;stroke-width:0.5;"/><text fill="#000000" font-family="sans-serif" font-size="14" lengthAdjust="spacing" textLength="54" x="34" y="83.9659">Support</text></g><!--entity qa--><g id="elem_qa"><ellipse cx="61" cy="136.5" fill="#F1F1F1" rx="8" ry="8" style="stroke:#181818;stroke-width:0.5;"/><path d="M61,144.5 L61,171.5 M48,152.5 L74,152.5 M61,171.5 L48,186.5 M61,171.5 L74,186.5 " fill="none" style="stroke:#181818;stroke-width:0.5;"/><text fill="#000000" font-family="sans-serif" font-size="14" lengthAdjust="spacing" textLength="20" x="51" y="202.9659">QA</text></g><g id="elem_pb"><ellipse cx="685.8341" cy="364.4668" fill="#F1F1F1" rx="85.3341" ry="19.4668" style="stroke:#181818;stroke-width:0.5;"/><text fill="#000000" font-family="sans-serif" font-size="14" lengthAdjust="spacing" textLength="118" x="623.8341" y="369.1998">Produkt bestellen</text></g><g id="elem_ticket"><ellipse cx="292.5347" cy="272.4069" fill="#F1F1F1" rx="102.5347" ry="22.9069" style="stroke:#181818;stroke-width:0.5;"/><text fill="#000000" font-family="sans-serif" font-size="14" lengthAdjust="spacing" textLength="161" x="209.0347" y="277.1399">Support-Ticket erstellen</text></g><g id="elem_info"><ellipse cx="685.9255" cy="440.5851" fill="#F1F1F1" rx="95.9255" ry="21.5851" style="stroke:#181818;stroke-width:0.5;"/><text fill="#000000" font-family="sans-serif" font-size="14" lengthAdjust="spacing" textLength="145" x="610.4255" y="445.3181">Informationen finden</text></g><g id="elem_pm"><ellipse cx="686.2318" cy="278.4464" fill="#F1F1F1" rx="82.7318" ry="18.9464" style="stroke:#181818;stroke-width:0.5;"/><text fill="#000000" font-family="sans-serif" font-size="14" lengthAdjust="spacing" textLength="111" x="627.7318" y="283.1793">Problem melden</text></g><g id="elem_logs"><ellipse cx="292.5317" cy="105.4063" fill="#F1F1F1" rx="100.0317" ry="22.4063" style="stroke:#181818;stroke-width:0.5;"/><text fill="#000000" font-family="sans-serif" font-size="14" lengthAdjust="spacing" textLength="155" x="212.0317" y="110.1393">Chatbot-Logs einsehen</text></g><g id="elem_readticket"><ellipse cx="292.5993" cy="28.5199" fill="#F1F1F1" rx="83.0993" ry="19.0199" style="stroke:#181818;stroke-width:0.5;"/><text fill="#000000" font-family="sans-serif" font-size="14" lengthAdjust="spacing" textLength="112" x="233.5993" y="33.2528">Tickets einsehen</text></g><g id="elem_cga"><ellipse cx="292.4151" cy="188.483" fill="#F1F1F1" rx="115.4151" ry="25.483" style="stroke:#181818;stroke-width:0.5;"/><text fill="#000000" font-family="sans-serif" font-size="14" lengthAdjust="spacing" textLength="191" x="193.9151" y="193.216">Chatbot-Graph aktualisieren</text></g><g id="elem_cfg"><ellipse cx="685.8322" cy="518.6664" fill="#F1F1F1" rx="96.3322" ry="21.6664" style="stroke:#181818;stroke-width:0.5;"/><text fill="#000000" font-family="sans-serif" font-size="14" lengthAdjust="spacing" textLength="146" x="609.8322" y="523.3994">Chat-Feedback geben</text></g><g id="elem_GMN16"><path d="M610.5,91.5 L610.5,101.5 L392.54,105.5 L610.5,109.5 L610.5,119.206 A0,0 0 0 0 610.5,119.206 L761.5,119.206 A0,0 0 0 0 761.5,119.206 L761.5,101.5 L751.5,91.5 L610.5,91.5 A0,0 0 0 0 610.5,91.5 " fill="#FEFFDD" style="stroke:#181818;stroke-width:0.5;"/><path d="M751.5,91.5 L751.5,101.5 L761.5,101.5 L751.5,91.5 " fill="#FEFFDD" style="stroke:#181818;stroke-width:0.5;"/><text fill="#000000" font-family="sans-serif" font-size="13" lengthAdjust="spacing" textLength="130" x="616.5" y="110.397">Beinhalten Statistiken</text></g><g id="elem_GMN19"><path d="M548,6 L548,24.5 L375.57,28.5 L548,32.5 L548,51.412 A0,0 0 0 0 548,51.412 L824,51.412 A0,0 0 0 0 824,51.412 L824,16 L814,6 L548,6 A0,0 0 0 0 548,6 " fill="#FEFFDD" style="stroke:#181818;stroke-width:0.5;"/><path d="M814,6 L814,16 L824,16 L814,6 " fill="#FEFFDD" style="stroke:#181818;stroke-width:0.5;"/><text fill="#000000" font-family="sans-serif" font-size="13" lengthAdjust="spacing" textLength="255" x="554" y="24.897">Tickets: Beinhalten Informationen aus dem</text><text fill="#000000" font-family="sans-serif" font-size="13" lengthAdjust="spacing" textLength="200" x="554" y="42.603">Chat inkl. Input Daten (z.B. E-Mail)</text></g><!--link bc to c--><g id="link_bc_c"><path d="M116.1,396.5 C165.4,396.5 217.65,396.5 252.39,396.5 " fill="none" id="bc-to-c" style="stroke:#181818;stroke-width:1.0;"/><polygon fill="none" points="270.39,396.5,252.39,390.5,252.39,402.5,270.39,396.5" style="stroke:#181818;stroke-width:1.0;"/></g><!--link ticket to pm--><g id="link_ticket_pm"><path d="M394.83,274.05 C459.74,275.05 536.8607,276.228 597.4907,277.158 " fill="none" id="ticket-to-pm" style="stroke:#181818;stroke-width:1.0;stroke-dasharray:7.0,7.0;"/><polygon fill="#181818" points="603.49,277.25,594.5524,273.1124,598.4906,277.1733,594.4297,281.1115,603.49,277.25" style="stroke:#181818;stroke-width:1.0;"/><text fill="#000000" font-family="sans-serif" font-size="13" lengthAdjust="spacing" textLength="56" x="450" y="252.397">&#171;extend&#187;</text><text fill="#000000" font-family="sans-serif" font-size="13" lengthAdjust="spacing" textLength="78" x="439" y="270.103">(nicht gel&#246;st)</text></g><!--link c to pb--><g id="link_c_pb"><path d="M314.55,394.78 C368.39,390.38 507.3599,379.0186 599.1599,371.5186 " fill="none" id="c-to-pb" style="stroke:#181818;stroke-width:1.0;"/><polygon fill="#181818" points="605.14,371.03,595.8442,367.7761,600.1566,371.4371,596.4956,375.7496,605.14,371.03" style="stroke:#181818;stroke-width:1.0;"/></g><!--link c to pm--><g id="link_c_pm"><path d="M314.55,390.16 C374.74,372.01 543.0652,321.2813 629.4352,295.2513 " fill="none" id="c-to-pm" style="stroke:#181818;stroke-width:1.0;"/><polygon fill="#181818" points="635.18,293.52,625.4086,292.2872,630.3927,294.9628,627.7171,299.9469,635.18,293.52" style="stroke:#181818;stroke-width:1.0;"/></g><!--link c to cfg--><g id="link_c_cfg"><path d="M314.53,403.66 C357.98,418.38 460.88,452.9 548,479.5 C572.95,487.12 594.8348,493.4531 618.7248,500.1831 " fill="none" id="c-to-cfg" style="stroke:#181818;stroke-width:1.0;"/><polygon fill="#181818" points="624.5,501.81,616.9218,495.5195,619.6873,500.4542,614.7526,503.2198,624.5,501.81" style="stroke:#181818;stroke-width:1.0;"/></g><!--link c to info--><g id="link_c_info"><path d="M314.55,398.87 C367.36,404.8 501.8475,419.9204 593.8375,430.2504 " fill="none" id="c-to-info" style="stroke:#181818;stroke-width:1.0;"/><polygon fill="#181818" points="599.8,430.92,591.3026,425.9406,594.8312,430.362,590.4098,433.8907,599.8,430.92" style="stroke:#181818;stroke-width:1.0;"/></g><!--link s to logs--><g id="link_s_logs"><path d="M88.33,55.04 C121.29,63.23 173.147,76.1035 218.637,87.4035 " fill="none" id="s-to-logs" style="stroke:#181818;stroke-width:1.0;"/><polygon fill="#181818" points="224.46,88.85,216.6898,82.7983,219.6075,87.6446,214.7611,90.5623,224.46,88.85" style="stroke:#181818;stroke-width:1.0;"/></g><!--link s to readticket--><g id="link_s_readticket"><path d="M88.33,46.21 C119,43.53 165.0728,39.522 208.8128,35.702 " fill="none" id="s-to-readticket" style="stroke:#181818;stroke-width:1.0;"/><polygon fill="#181818" points="214.79,35.18,205.4761,31.9782,209.809,35.615,206.1721,39.9479,214.79,35.18" style="stroke:#181818;stroke-width:1.0;"/></g><!--link qa to logs--><g id="link_qa_logs"><path d="M74.67,164.08 C103.33,156.34 168.9976,138.5946 222.0876,124.2546 " fill="none" id="qa-to-logs" style="stroke:#181818;stroke-width:1.0;"/><polygon fill="#181818" points="227.88,122.69,218.1483,121.1753,223.053,123.9938,220.2344,128.8985,227.88,122.69" style="stroke:#181818;stroke-width:1.0;"/></g><!--link qa to cga--><g id="link_qa_cga"><path d="M74.67,168.66 C96.14,170.62 135.6549,174.2443 179.4549,178.2443 " fill="none" id="qa-to-cga" style="stroke:#181818;stroke-width:1.0;"/><polygon fill="#181818" points="185.43,178.79,176.8311,173.9881,180.4507,178.3353,176.1035,181.9549,185.43,178.79" style="stroke:#181818;stroke-width:1.0;"/></g><!--SRC=[PP9BRjmm38RtEWMHJPA5VO11O22JfaNG1nfCsrM1WfPfMx0iEHADja7FrGlqOgLiJUOHhsZo-odz8Ysr3EmXcAvdQ4mWpSOx5GVZ9WmumeHwm8vs_DiIf3Awpf9IgDa7U3-xXW0Zw9pOpj4uYl77IwNMgjPG57ygWJArcwV91qxbc5EFj-dl2PMQ8scC11UVWs_cWQ6co6GjkOk4JFM1o7sABqOFn43X6EGbUO0VNEl3YCaVEMYDt6y5ZHHEJgqjZJ2ItGFJU2ZVzSYrv-A3xoAGSP7wJ5d97BZrIcT886pEhxLl-2xWr0CEFACrqL386jtXALoy9Mfg6GjqLE-XjbFg4huASvV0-_2J35EONKTEhKT2MLPY1JPmSqE_c5nJLT_TbJDQHj-H_VStydNgyicpUHQPyqnvCtoxsWFvjcAfHoiDOCVod97D8BJqIu8prP7ZfCsliZbkSZeNd2CqD2vqSYlJ6Mmfq3GplC4ak7ekjoNS5n_HsEkNS-NYtoZKCjR5z6RTJPLMhqfBauCn1-d5rcWP_ojrNYqL5sOnluP7Zbw97c_L4nu4EPO9_WS0]--></g></svg>